<?xml version="1.0" encoding="iso-8859-1"?>
<!-- Uploaded to: SVG Repo, www.svgrepo.com, Generator: SVG Repo Mixer Tools -->
<svg fill="#000000" height="800px" width="800px" version="1.1" id="Layer_1" xmlns="http://www.w3.org/2000/svg" xmlns:xlink="http://www.w3.org/1999/xlink" 
	 viewBox="0 0 510.6 510.6" xml:space="preserve">
<g>
	<g>
		<path d="M426,110.9h-25.6V76.8c0-12.4-8.9-22.8-20.6-25.1c-7.1-11.7-6.5-26.3,2-38.2c1.9-2.6,2.1-6,0.6-8.9
			C380.9,1.8,378,0,374.8,0h-256c-3.2,0-6.2,1.8-7.6,4.7c-1.5,2.9-1.2,6.3,0.7,8.9c8.5,11.5,9,26.1,1.9,38.1
			C102.1,54,93.2,64.4,93.2,76.8v42.7H76.1c-9.4,0-17.1,7.7-17.1,17.1v51.2c0,9.4,7.7,17.1,17.1,17.1h17.1V256H76.1
			c-9.4,0-17.1,7.7-17.1,17.1v85.3c0,9.4,7.7,17.1,17.1,17.1h17.1v110.9c0,11.1,7.2,20.5,17.2,24.1c0-0.1-0.1-0.3-0.1-0.4
			c0-4.7,3.8-8.5,8.5-8.5c24.3,0,42.6-17.5,42.6-40.7c0-0.1,0.1-0.2,0.1-0.3l-28.1-8.7c-3.6-1.1-6-4.4-6-8.2v-25.6v-51.2V119.5
			c0-3.7,2.4-7.1,6-8.2l28.1-8.6V68.3h8.5h8.5v29.1l13.2-4.1c0,0,0,0,0.1,0c18-5.4,36.5-8.1,55-8.1s37,2.7,55,8.1l13.3,4.1V68.3h8.5
			h8.5v34.4l28.1,8.6c3.6,1.1,6,4.4,6,8.2v324.3c0,3.7-2.4,7.1-6,8.2l-28.1,8.7c0,0.1,0.1,0.2,0.1,0.3c0,23.2,18.3,40.7,42.6,40.7
			c4.7,0,8.5,3.8,8.5,8.5c0,0.1-0.1,0.3-0.1,0.4c10-3.5,17.2-12.9,17.2-24.1V213.3H426c14.1,0,25.6-11.5,25.6-25.6v-51.2
			C451.6,122.4,440.1,110.9,426,110.9z M93.2,358.4H76.1v-85.3h17.1V358.4z M93.2,187.7H76.1v-51.2h17.1V187.7z M132.9,51.2
			c1-2.7,1.7-5.4,2.2-8.1c0.2-0.9,0.2-1.8,0.3-2.7c0.2-1.9,0.5-3.7,0.5-5.6c0-1.1-0.1-2.1-0.2-3.2c-0.1-1.7-0.2-3.4-0.4-5.1
			c-0.2-1.1-0.5-2.2-0.7-3.4c-0.2-1.1-0.4-2.2-0.7-3.3c13.5,5.1,23.8,16.9,26.8,31.4H132.9z M315.7,51.2H177.8
			c-1.9-13.3-8.2-25.2-17.3-34.1h172.6C323.9,26,317.6,37.9,315.7,51.2z M333,51.2c2.9-14.5,13.3-26.3,26.9-31.4
			c-0.3,1.1-0.5,2.2-0.7,3.3c-0.3,1.2-0.6,2.3-0.8,3.5c-0.3,1.7-0.4,3.3-0.5,5c-0.1,1.1-0.2,2.2-0.2,3.3c0,1.8,0.2,3.6,0.4,5.4
			c0.1,0.9,0.1,1.9,0.3,2.8c0.5,2.7,1.2,5.4,2.1,8.1H333z M434.5,187.7c0,4.7-3.8,8.5-8.5,8.5h-25.6V128H426c4.7,0,8.5,3.8,8.5,8.5
			V187.7z"/>
	</g>
</g>
<g>
	<g>
		<path d="M297.5,219.2c-1.1-1.2-2.2-2.4-3.4-3.6c-0.1-0.1-0.2-0.1-0.2-0.2c-8.4-8-18.8-13.8-30-16.7h-0.1c-1.9-0.5-3.8-0.9-5.7-1.2
			c-3.7-0.6-7.4-1-11.3-1c-37.6,0-68.3,30.6-68.3,68.3c0,37.7,30.6,68.3,68.3,68.3s68.2-30.7,68.2-68.4
			C315,247.2,308.3,231.3,297.5,219.2z M212.6,298.8c-4.7,0-8.5-3.8-8.5-8.5s3.8-8.5,8.5-8.5c4.7,0,8.5,3.8,8.5,8.5
			C221.2,295,217.3,298.8,212.6,298.8z M246.8,230.5c-18.9,0.1-34.2,15.4-34.2,34.2c0,4.7-3.8,8.5-8.5,8.5c-4.7,0-8.5-3.8-8.5-8.5
			c0-28.2,23-51.2,51.2-51.2c4.7,0,8.5,3.8,8.5,8.5S251.5,230.5,246.8,230.5z M272.4,239c-4.7,0-8.5-3.8-8.5-8.5s3.8-8.5,8.5-8.5
			s8.5,3.8,8.5,8.5S277.1,239,272.4,239z"/>
	</g>
</g>
<g>
	<g>
		<path d="M316.1,472l-14.2,4.4c-36.1,10.8-74.2,10.8-110.1,0l-14.4-4.4c-2.2,11.5-7.9,21.6-15.9,29.5H332
			C324,493.6,318.4,483.5,316.1,472z"/>
	</g>
</g>
<g>
	<g>
		<path d="M296.9,109.7c-32.7-9.8-67.4-9.8-100.2,0l-52.3,16.1v7c5-2.9,10.8-4.7,17.1-4.7c18.8,0,34.1,15.3,34.1,34.1
			s-15.3,34.1-34.1,34.1c-6.2,0-12-1.8-17.1-4.7v166.9h34.1c18.8,0,34.1,15.3,34.1,34.1c0,18.8-15.3,34.1-34.1,34.1h-34.1v10.7
			l52.3,16.1c32.7,9.8,67.3,9.8,100.2,0l52.3-16.1V125.8L296.9,109.7z M333.4,194.7l-17.8,19.9c10.3,14.1,16.4,31.4,16.4,50.1
			c0,27-12.6,51-32.2,66.7l21.2,21.2c3.3,3.3,3.3,8.7,0,12.1c-1.7,1.7-3.8,2.5-6,2.5s-4.4-0.8-6-2.5l-23.8-23.8
			c-11.6,5.9-24.6,9.2-38.4,9.2c-47.1-0.1-85.4-38.3-85.4-85.4c0-47.1,38.3-85.3,85.3-85.3c2.1,0,4.2,0.2,6.3,0.3l7.4-28.3
			c0.7-2.6,2.6-4.7,5.1-5.7s5.3-0.8,7.6,0.6l58.4,35.4c2.2,1.3,3.6,3.5,4,6.1C335.9,190.3,335.1,192.9,333.4,194.7z"/>
	</g>
</g>
<g>
	<g>
		<path d="M274.2,166.8l-4.2,15.8c9.5,2.7,18.4,7,26.2,12.6c0.3,0.3,0.6,0.6,1,0.8c2.2,1.6,4.3,3.3,6.3,5.1c0.2,0.2,0.5,0.4,0.8,0.6
			l9.7-10.8L274.2,166.8z"/>
	</g>
</g>
<g>
	<g>
		<path d="M178.5,375.4h-34.1v34.1h34.1c9.4,0.1,17.1-7.6,17.1-17C195.6,383.1,187.9,375.4,178.5,375.4z M170,401.1
			c-4.7,0-8.5-3.8-8.5-8.5s3.8-8.5,8.5-8.5s8.5,3.8,8.5,8.5S174.7,401.1,170,401.1z"/>
	</g>
</g>
<g>
	<g>
		<path d="M161.4,145c-9.4,0-17.1,7.7-17.1,17.1c0,9.4,7.7,17.1,17.1,17.1c9.4,0,17.1-7.7,17.1-17.1
			C178.5,152.7,170.8,145,161.4,145z"/>
	</g>
</g>
</svg>